HIERARCHY
ROOT Hips
{
	OFFSET -3.958830 18.904000 13.208200
	CHANNELS 6 Xposition Yposition Zposition Zrotation Yrotation Xrotation 
	JOINT LHipJoint
	{
		OFFSET 0.000000 0.000000 0.000000
		CHANNELS 3 Zrotation Yrotation Xrotation
		JOINT LeftUpLeg
		{
			OFFSET 1.800000 -1.400000 0.085000
			CHANNELS 3 Zrotation Yrotation Xrotation
			JOINT LeftLeg
			{
				OFFSET 2.215000 -6.000000 0.000000
				CHANNELS 3 Zrotation Yrotation Xrotation
				JOINT LeftFoot
				{
					OFFSET 2.500000 -6.900000 0.000000
					CHANNELS 3 Zrotation Yrotation Xrotation
					JOINT LeftToeBase
					{
						OFFSET 0.200000 -0.500000 1.950000
						CHANNELS 3 Zrotation Yrotation Xrotation
						End Site
						{
							OFFSET 0.000000 0.000000 0.000000
						}
					}
				}
			}
		}
	}
	JOINT RHipJoint
	{
		OFFSET 0.000000 0.000000 0.000000
		CHANNELS 3 Zrotation Yrotation Xrotation
		JOINT RightUpLeg
		{
			OFFSET -1.800000 -1.400000 0.085000
			CHANNELS 3 Zrotation Yrotation Xrotation
			JOINT RightLeg
			{
				OFFSET -2.215000 -6.000000 0.000000
				CHANNELS 3 Zrotation Yrotation Xrotation
				JOINT RightFoot
				{
					OFFSET -2.500000 -6.900000 0.000000
					CHANNELS 3 Zrotation Yrotation Xrotation
					JOINT RightToeBase
					{
						OFFSET -0.200000 -0.500000 1.950000
						CHANNELS 3 Zrotation Yrotation Xrotation
						End Site
						{
							OFFSET 0.000000 0.000000 0.000000
						}
					}
				}
			}
		}
	}
	JOINT LowerBack
	{
		OFFSET 0.000000 0.000000 0.000000
		CHANNELS 3 Zrotation Yrotation Xrotation
		JOINT Spine
		{
			OFFSET -0.087000 1.940000 -0.288900
			CHANNELS 3 Zrotation Yrotation Xrotation
			JOINT Spine1
			{
				OFFSET 0.000000 1.950000 0.060000
				CHANNELS 3 Zrotation Yrotation Xrotation
				JOINT Neck
				{
					OFFSET 0.000000 0.000000 0.000000
					CHANNELS 3 Zrotation Yrotation Xrotation
					JOINT Neck1
					{
						OFFSET 0.000000 1.600000 0.340000
						CHANNELS 3 Zrotation Yrotation Xrotation
						JOINT Head
						{
							OFFSET 0.000000 1.667000 -0.240000
							CHANNELS 3 Zrotation Yrotation Xrotation
							End Site
							{
								OFFSET 0.000000 0.000000 0.000000
							}
						}
					}
				}
				JOINT LeftShoulder
				{
					OFFSET 0.000000 0.000000 0.000000
					CHANNELS 3 Zrotation Yrotation Xrotation
					JOINT LeftArm
					{
						OFFSET 2.700000 1.550000 -0.730000
						CHANNELS 3 Zrotation Yrotation Xrotation
						JOINT LeftForeArm
						{
							OFFSET 5.450000 0.000000 0.000000
							CHANNELS 3 Zrotation Yrotation Xrotation
							JOINT LeftHand
							{
								OFFSET 3.450000 0.000000 0.000000
								CHANNELS 3 Zrotation Yrotation Xrotation
								JOINT LeftHandIndex1
								{
									OFFSET 0.750000 0.000000 0.000000
									CHANNELS 3 Zrotation Yrotation Xrotation
									End Site
									{
										OFFSET 0.000000 0.000000 0.000000
									}
								}
							}
						}
					}
				}
				JOINT RightShoulder
				{
					OFFSET 0.000000 0.000000 0.000000
					CHANNELS 3 Zrotation Yrotation Xrotation
					JOINT RightArm
					{
						OFFSET -2.700000 1.550000 -0.730000
						CHANNELS 3 Zrotation Yrotation Xrotation
						JOINT RightForeArm
						{
							OFFSET -5.450000 0.000000 0.000000
							CHANNELS 3 Zrotation Yrotation Xrotation
							JOINT RightHand
							{
								OFFSET -3.450000 0.000000 0.000000
								CHANNELS 3 Zrotation Yrotation Xrotation
								JOINT RightHandIndex1
								{
									OFFSET -0.750000 0.000000 0.000000
									CHANNELS 3 Zrotation Yrotation Xrotation
									End Site
									{
										OFFSET 0.000000 0.000000 0.000000
									}
								}
							}
						}
					}
				}
			}
		}
	}
}
MOTION
Frames: 6
Frame Time: 0.016667
0.444080 16.853290 -0.934360 -5.744145 -4.267572 0.431666 -14.940267 13.222635 3.245127 0.833096 0.091968 -1.557568 -5.601977 4.282977 3.732573 -0.329976 3.526915 3.371057 0.900870 0.673300 0.633150 18.473433 -10.866289 3.220446 1.224830 -0.611016 -4.211491 6.483540 -4.436060 5.463697 -0.653038 -3.389114 3.401258 0.285080 -0.285250 0.187450 -4.130950 -1.480825 -8.029910 14.343679 -0.157206 7.816796 -5.646880 0.921719 6.303873 4.073625 -3.664342 -13.896789 -9.984972 5.463762 46.539805 -0.359140 3.538210 -20.116000 -34.201042 -19.764790 7.644736 -39.723441 -4.419902 -3.545372 -21.788213 -28.800459 2.898389 -3.004062 3.208791 0.825220 -0.231430 0.366040 0.284550 26.007892 24.660091 10.193199 41.606615 9.994501 -2.786367 26.587133 26.948344 4.061146 2.116924 -1.498216 0.010000 0.025210 -0.419290 -0.266190 
0.445790 16.851630 -0.936650 -5.750506 -4.344620 0.439998 -14.938475 13.236659 3.249200 0.904880 0.085635 -1.650537 -5.837109 4.346106 3.883448 -0.331614 3.550415 3.365714 0.894680 0.660420 0.632010 18.471921 -10.865072 3.222957 1.345594 -0.611955 -4.222406 6.217907 -4.398037 5.491136 -0.650654 -3.369294 3.409333 0.277120 -0.280710 0.188540 -4.128529 -1.508400 -8.041918 14.396022 -0.164374 7.868010 -5.678672 0.951732 6.243687 4.048993 -3.658018 -14.046820 -10.077930 5.405917 46.737681 -0.295920 3.403910 -20.109760 -33.993319 -19.953576 7.704166 -39.778963 -4.475121 -3.428807 -21.969176 -28.470161 2.885314 -3.009575 3.196601 0.832210 -0.231520 0.364720 0.281980 25.850068 24.828090 10.301796 41.861175 9.891652 -2.883105 26.470526 27.057507 4.033524 2.113585 -1.489760 0.006040 0.029800 -0.412960 -0.268690 
0.453850 16.854100 -0.940720 -5.948772 -4.403869 0.348164 -14.908105 13.270326 3.252369 1.078714 0.063011 -1.761924 -5.961032 4.413386 4.187667 -0.332144 3.562203 3.359154 0.887290 0.645580 0.638890 18.489875 -10.876784 3.235549 1.442793 -0.611657 -4.212441 6.175138 -4.416537 5.707114 -0.654337 -3.350914 3.406987 0.265310 -0.292200 0.184630 -4.195382 -1.540261 -8.063960 15.185215 -0.337243 8.086373 -6.152056 0.941776 6.003379 4.130992 -3.833494 -14.325743 -10.633744 5.483569 47.548456 -0.368130 3.212700 -20.261400 -34.174245 -20.035835 7.829840 -39.621057 -3.960323 -3.630432 -22.346606 -28.841397 2.984548 -2.992549 3.191740 0.846080 -0.246010 0.371930 0.269310 25.784759 25.076243 10.447859 42.069617 9.793738 -2.931754 26.294345 26.957623 3.993131 2.121772 -1.471657 0.004630 0.031610 -0.406380 -0.274710 
0.458830 16.855360 -0.939640 -5.947035 -4.698690 0.369313 -14.896592 13.255476 3.271622 0.929347 0.058849 -1.627079 -5.892365 4.361935 3.883450 -0.349052 3.581241 3.354766 0.872340 0.610170 0.640010 18.502195 -10.890300 3.221984 1.458812 -0.589140 -4.317402 5.878967 -4.395815 5.916965 -0.639389 -3.341260 3.404670 0.253580 -0.286820 0.189280 -4.226055 -1.504427 -8.059696 15.453629 -0.260558 7.962648 -6.340876 1.042996 6.061704 4.182542 -3.842066 -14.445794 -10.676023 5.404235 47.636837 -0.709570 3.125260 -19.781970 -34.174645 -20.166977 7.904264 -39.440028 -3.707963 -3.644620 -22.849167 -28.852258 3.066306 -3.006126 3.190946 0.853280 -0.238660 0.357470 0.254680 25.654711 25.251138 10.570709 42.255049 9.670685 -3.052879 26.309579 27.188560 4.009422 2.111526 -1.471143 -0.007950 0.027320 -0.387690 -0.289120 
0.460170 16.855360 -0.940400 -5.797423 -4.768105 0.336190 -14.903842 13.257619 3.280997 0.864666 0.082406 -1.648728 -6.176584 4.438024 4.007642 -0.342170 3.613669 3.346043 0.851200 0.589150 0.624490 18.491892 -10.895136 3.215636 1.280066 -0.574787 -4.376745 5.948264 -4.418410 5.945882 -0.628527 -3.346420 3.409978 0.241140 -0.271580 0.192090 -4.199441 -1.505477 -8.070076 15.184890 -0.209025 7.929940 -6.248113 1.079987 6.152352 4.184186 -3.789444 -14.609869 -10.594633 5.326787 47.759432 -1.011120 3.112090 -19.323250 -33.937742 -20.395115 8.048731 -39.359710 -3.478079 -3.722514 -23.514893 -29.108694 3.223844 -3.025734 3.184139 0.843990 -0.224380 0.347970 0.249130 25.456980 25.492660 10.675529 42.415560 9.634550 -3.112064 26.319620 27.222357 3.988442 2.107499 -1.461483 -0.010320 0.032160 -0.371850 -0.286580 
0.459630 16.853730 -0.939150 -5.417141 -4.550558 0.319420 -14.932904 13.262714 3.298311 0.633606 0.104719 -1.652738 -6.364933 4.473951 4.016042 -0.344540 3.632635 3.348919 0.846010 0.578470 0.624560 18.461792 -10.889283 3.199617 0.863541 -0.578346 -4.340399 6.013962 -4.422286 5.812046 -0.626308 -3.352544 3.415309 0.239080 -0.260830 0.185410 -4.117644 -1.539837 -8.085158 14.353526 -0.171218 7.901505 -5.897476 1.055348 5.997065 4.073972 -3.718229 -14.560908 -10.456528 5.306335 47.805443 -0.873890 3.127580 -19.245340 -33.676379 -20.238190 8.010086 -39.300868 -3.328099 -3.654373 -24.436542 -29.068078 3.424854 -3.033495 3.169428 0.850610 -0.221180 0.342570 0.252180 25.500208 25.279517 10.595113 42.407158 9.539136 -3.032172 26.653236 26.926183 4.010468 2.108053 -1.453793 -0.023450 0.045590 -0.370900 -0.290010 
